<?xml version="1.0" encoding="utf-8" standalone="no"?>
<!DOCTYPE svg PUBLIC "-//W3C//DTD SVG 1.1//EN"
  "http://www.w3.org/Graphics/SVG/1.1/DTD/svg11.dtd">
<svg xmlns:xlink="http://www.w3.org/1999/xlink" width="497.99952pt" height="177.59952pt" viewBox="0 0 497.99952 177.59952" xmlns="http://www.w3.org/2000/svg" version="1.1">
 <metadata>
  <rdf:RDF xmlns:dc="http://purl.org/dc/elements/1.1/" xmlns:cc="http://creativecommons.org/ns#" xmlns:rdf="http://www.w3.org/1999/02/22-rdf-syntax-ns#">
   <cc:Work>
    <dc:type rdf:resource="http://purl.org/dc/dcmitype/StillImage"/>
    <dc:date>2026-09-02T00:33:39.402055</dc:date>
    <dc:format>image/svg+xml</dc:format>
    <dc:creator>
     <cc:Agent>
      <dc:title>Matplotlib v3.10.8, https://matplotlib.org/</dc:title>
     </cc:Agent>
    </dc:creator>
   </cc:Work>
  </rdf:RDF>
 </metadata>
 <defs>
  <style type="text/css">*{stroke-linejoin: round; stroke-linecap: butt}</style>
 </defs>
 <g id="figure_1">
  <g id="patch_1">
   <path d="M 0 177.59952 
L 497.99952 177.59952 
L 497.99952 0 
L 0 0 
z
" style="fill: #ffffff"/>
  </g>
  <g id="axes_1">
   <g id="patch_2">
    <path d="M 18.423577 139.119612 
L 234.775943 139.119612 
Q 238.596735 139.119612 238.596735 128.239644 
L 238.596735 39.159906 
Q 238.596735 28.279938 234.775943 28.279938 
L 18.423577 28.279938 
Q 14.602785 28.279938 14.602785 39.159906 
L 14.602785 128.239644 
Q 14.602785 139.119612 18.423577 139.119612 
z
" style="fill: #f7f7f7; stroke: #595959; stroke-linejoin: miter"/>
   </g>
   <g id="patch_3">
    <path d="M 66.89988 112.59969 
C 68.293148 112.59969 69.629539 111.023415 70.614729 108.21802 
C 71.599918 105.412626 72.153469 101.607161 72.153469 97.639734 
C 72.153469 93.672307 71.599918 89.866842 70.614729 87.061448 
C 69.629539 84.256053 68.293148 82.679778 66.89988 82.679778 
C 65.506612 82.679778 64.170221 84.256053 63.185031 87.061448 
C 62.199842 89.866842 61.646291 93.672307 61.646291 97.639734 
C 61.646291 101.607161 62.199842 105.412626 63.185031 108.21802 
C 64.170221 111.023415 65.506612 112.59969 66.89988 112.59969 
L 66.89988 112.59969 
z
" clip-path="url(#p0989dbd8fc)" style="fill: none; stroke: #262626; stroke-width: 1.4; stroke-linejoin: miter"/>
   </g>
   <g id="patch_4">
    <path d="M 186.29964 112.59969 
C 187.692908 112.59969 189.029299 111.023415 190.014489 108.21802 
C 190.999678 105.412626 191.553229 101.607161 191.553229 97.639734 
C 191.553229 93.672307 190.999678 89.866842 190.014489 87.061448 
C 189.029299 84.256053 187.692908 82.679778 186.29964 82.679778 
C 184.906372 82.679778 183.569981 84.256053 182.584791 87.061448 
C 181.599602 89.866842 181.046051 93.672307 181.046051 97.639734 
C 181.046051 101.607161 181.599602 105.412626 182.584791 108.21802 
C 183.569981 111.023415 184.906372 112.59969 186.29964 112.59969 
L 186.29964 112.59969 
z
" clip-path="url(#p0989dbd8fc)" style="fill: none; stroke: #262626; stroke-width: 1.4; stroke-linejoin: miter"/>
   </g>
   <g id="patch_5">
    <path d="M 66.89988 122.119662 
C 69.179773 122.119662 71.366595 119.540302 72.978723 114.949657 
C 74.590851 110.359012 75.496663 104.131887 75.496663 97.639734 
C 75.496663 91.147581 74.590851 84.920456 72.978723 80.329811 
C 71.366595 75.739166 69.179773 73.159806 66.89988 73.159806 
C 64.619987 73.159806 62.433165 75.739166 60.821037 80.329811 
C 59.208909 84.920456 58.303097 91.147581 58.303097 97.639734 
C 58.303097 104.131887 59.208909 110.359012 60.821037 114.949657 
C 62.433165 119.540302 64.619987 122.119662 66.89988 122.119662 
L 66.89988 122.119662 
z
" clip-path="url(#p0989dbd8fc)" style="fill: none; stroke: #262626; stroke-width: 1.8; stroke-linejoin: miter"/>
   </g>
   <g id="patch_6">
    <path d="M 77.975228 97.639734 
Q 96.748514 97.639734 113.621142 97.639734 
" clip-path="url(#p0989dbd8fc)" style="fill: none; stroke: #262626; stroke-width: 1.7; stroke-linecap: round"/>
    <path d="M 107.621142 94.639734 
L 113.621142 97.639734 
L 107.621142 100.639734 
z
" clip-path="url(#p0989dbd8fc)" style="fill: #262626; stroke: #262626; stroke-width: 1.7; stroke-linecap: round"/>
   </g>
   <g id="line2d_1">
    <path d="M 126.59976 97.639734 
" clip-path="url(#p0989dbd8fc)" style="fill: none; stroke: #262626; stroke-width: 1.5; stroke-linecap: square"/>
    <defs>
     <path id="m950b4a3790" d="M 0 -7.5 
L -1.683855 -2.317627 
L -7.132924 -2.317627 
L -2.724534 0.885255 
L -4.408389 6.067627 
L -0 2.864745 
L 4.408389 6.067627 
L 2.724534 0.885255 
L 7.132924 -2.317627 
L 1.683855 -2.317627 
z
" style="stroke: #262626; stroke-width: 1.4; stroke-linejoin: bevel"/>
    </defs>
    <g clip-path="url(#p0989dbd8fc)">
     <use xlink:href="#m950b4a3790" x="126.59976" y="97.639734" style="fill: #ffffff; stroke: #262626; stroke-width: 1.4; stroke-linejoin: bevel"/>
    </g>
   </g>
   <g id="line2d_2">
    <path d="M 66.89988 45.959886 
L 66.89988 70.439814 
" clip-path="url(#p0989dbd8fc)" style="fill: none; stroke-dasharray: 3.33,1.44; stroke-dashoffset: 0; stroke: #595959; stroke-width: 0.9"/>
   </g>
   <g id="text_1">
    <!-- A -->
    <g transform="translate(63.479567 131.078096) scale(0.1 -0.1)">
     <defs>
      <path id="DejaVuSans-41" d="M 2188 4044 
L 1331 1722 
L 3047 1722 
L 2188 4044 
z
M 1831 4666 
L 2547 4666 
L 4325 0 
L 3669 0 
L 3244 1197 
L 1141 1197 
L 716 0 
L 50 0 
L 1831 4666 
z
" transform="scale(0.015625)"/>
     </defs>
     <use xlink:href="#DejaVuSans-41"/>
    </g>
   </g>
   <g id="text_2">
    <!-- B -->
    <g transform="translate(182.869171 131.078096) scale(0.1 -0.1)">
     <defs>
      <path id="DejaVuSans-42" d="M 1259 2228 
L 1259 519 
L 2272 519 
Q 2781 519 3026 730 
Q 3272 941 3272 1375 
Q 3272 1813 3026 2020 
Q 2781 2228 2272 2228 
L 1259 2228 
z
M 1259 4147 
L 1259 2741 
L 2194 2741 
Q 2656 2741 2882 2914 
Q 3109 3088 3109 3444 
Q 3109 3797 2882 3972 
Q 2656 4147 2194 4147 
L 1259 4147 
z
M 628 4666 
L 2241 4666 
Q 2963 4666 3353 4366 
Q 3744 4066 3744 3513 
Q 3744 3084 3544 2831 
Q 3344 2578 2956 2516 
Q 3422 2416 3680 2098 
Q 3938 1781 3938 1306 
Q 3938 681 3513 340 
Q 3088 0 2303 0 
L 628 0 
L 628 4666 
z
" transform="scale(0.015625)"/>
     </defs>
     <use xlink:href="#DejaVuSans-42"/>
    </g>
   </g>
   <g id="text_3">
    <!-- target -->
    <g transform="translate(112.156791 64.384123) scale(0.095 -0.095)">
     <defs>
      <path id="DejaVuSans-74" d="M 1172 4494 
L 1172 3500 
L 2356 3500 
L 2356 3053 
L 1172 3053 
L 1172 1153 
Q 1172 725 1289 603 
Q 1406 481 1766 481 
L 2356 481 
L 2356 0 
L 1766 0 
Q 1100 0 847 248 
Q 594 497 594 1153 
L 594 3053 
L 172 3053 
L 172 3500 
L 594 3500 
L 594 4494 
L 1172 4494 
z
" transform="scale(0.015625)"/>
      <path id="DejaVuSans-61" d="M 2194 1759 
Q 1497 1759 1228 1600 
Q 959 1441 959 1056 
Q 959 750 1161 570 
Q 1363 391 1709 391 
Q 2188 391 2477 730 
Q 2766 1069 2766 1631 
L 2766 1759 
L 2194 1759 
z
M 3341 1997 
L 3341 0 
L 2766 0 
L 2766 531 
Q 2569 213 2275 61 
Q 1981 -91 1556 -91 
Q 1019 -91 701 211 
Q 384 513 384 1019 
Q 384 1609 779 1909 
Q 1175 2209 1959 2209 
L 2766 2209 
L 2766 2266 
Q 2766 2663 2505 2880 
Q 2244 3097 1772 3097 
Q 1472 3097 1187 3025 
Q 903 2953 641 2809 
L 641 3341 
Q 956 3463 1253 3523 
Q 1550 3584 1831 3584 
Q 2591 3584 2966 3190 
Q 3341 2797 3341 1997 
z
" transform="scale(0.015625)"/>
      <path id="DejaVuSans-72" d="M 2631 2963 
Q 2534 3019 2420 3045 
Q 2306 3072 2169 3072 
Q 1681 3072 1420 2755 
Q 1159 2438 1159 1844 
L 1159 0 
L 581 0 
L 581 3500 
L 1159 3500 
L 1159 2956 
Q 1341 3275 1631 3429 
Q 1922 3584 2338 3584 
Q 2397 3584 2469 3576 
Q 2541 3569 2628 3553 
L 2631 2963 
z
" transform="scale(0.015625)"/>
      <path id="DejaVuSans-67" d="M 2906 1791 
Q 2906 2416 2648 2759 
Q 2391 3103 1925 3103 
Q 1463 3103 1205 2759 
Q 947 2416 947 1791 
Q 947 1169 1205 825 
Q 1463 481 1925 481 
Q 2391 481 2648 825 
Q 2906 1169 2906 1791 
z
M 3481 434 
Q 3481 -459 3084 -895 
Q 2688 -1331 1869 -1331 
Q 1566 -1331 1297 -1286 
Q 1028 -1241 775 -1147 
L 775 -588 
Q 1028 -725 1275 -790 
Q 1522 -856 1778 -856 
Q 2344 -856 2625 -561 
Q 2906 -266 2906 331 
L 2906 616 
Q 2728 306 2450 153 
Q 2172 0 1784 0 
Q 1141 0 747 490 
Q 353 981 353 1791 
Q 353 2603 747 3093 
Q 1141 3584 1784 3584 
Q 2172 3584 2450 3431 
Q 2728 3278 2906 2969 
L 2906 3500 
L 3481 3500 
L 3481 434 
z
" transform="scale(0.015625)"/>
      <path id="DejaVuSans-65" d="M 3597 1894 
L 3597 1613 
L 953 1613 
Q 991 1019 1311 708 
Q 1631 397 2203 397 
Q 2534 397 2845 478 
Q 3156 559 3463 722 
L 3463 178 
Q 3153 47 2828 -22 
Q 2503 -91 2169 -91 
Q 1331 -91 842 396 
Q 353 884 353 1716 
Q 353 2575 817 3079 
Q 1281 3584 2069 3584 
Q 2775 3584 3186 3129 
Q 3597 2675 3597 1894 
z
M 3022 2063 
Q 3016 2534 2758 2815 
Q 2500 3097 2075 3097 
Q 1594 3097 1305 2825 
Q 1016 2553 972 2059 
L 3022 2063 
z
" transform="scale(0.015625)"/>
     </defs>
     <use xlink:href="#DejaVuSans-74"/>
     <use xlink:href="#DejaVuSans-61" transform="translate(39.208984 0)"/>
     <use xlink:href="#DejaVuSans-72" transform="translate(100.488281 0)"/>
     <use xlink:href="#DejaVuSans-67" transform="translate(139.851562 0)"/>
     <use xlink:href="#DejaVuSans-65" transform="translate(203.328125 0)"/>
     <use xlink:href="#DejaVuSans-74" transform="translate(264.851562 0)"/>
    </g>
   </g>
   <g id="text_4">
    <!-- hidden $S$ -->
    <g style="fill: #404040" transform="translate(46.04738 41.264191) scale(0.095 -0.095)">
     <defs>
      <path id="DejaVuSans-68" d="M 3513 2113 
L 3513 0 
L 2938 0 
L 2938 2094 
Q 2938 2591 2744 2837 
Q 2550 3084 2163 3084 
Q 1697 3084 1428 2787 
Q 1159 2491 1159 1978 
L 1159 0 
L 581 0 
L 581 4863 
L 1159 4863 
L 1159 2956 
Q 1366 3272 1645 3428 
Q 1925 3584 2291 3584 
Q 2894 3584 3203 3211 
Q 3513 2838 3513 2113 
z
" transform="scale(0.015625)"/>
      <path id="DejaVuSans-69" d="M 603 3500 
L 1178 3500 
L 1178 0 
L 603 0 
L 603 3500 
z
M 603 4863 
L 1178 4863 
L 1178 4134 
L 603 4134 
L 603 4863 
z
" transform="scale(0.015625)"/>
      <path id="DejaVuSans-64" d="M 2906 2969 
L 2906 4863 
L 3481 4863 
L 3481 0 
L 2906 0 
L 2906 525 
Q 2725 213 2448 61 
Q 2172 -91 1784 -91 
Q 1150 -91 751 415 
Q 353 922 353 1747 
Q 353 2572 751 3078 
Q 1150 3584 1784 3584 
Q 2172 3584 2448 3432 
Q 2725 3281 2906 2969 
z
M 947 1747 
Q 947 1113 1208 752 
Q 1469 391 1925 391 
Q 2381 391 2643 752 
Q 2906 1113 2906 1747 
Q 2906 2381 2643 2742 
Q 2381 3103 1925 3103 
Q 1469 3103 1208 2742 
Q 947 2381 947 1747 
z
" transform="scale(0.015625)"/>
      <path id="DejaVuSans-6e" d="M 3513 2113 
L 3513 0 
L 2938 0 
L 2938 2094 
Q 2938 2591 2744 2837 
Q 2550 3084 2163 3084 
Q 1697 3084 1428 2787 
Q 1159 2491 1159 1978 
L 1159 0 
L 581 0 
L 581 3500 
L 1159 3500 
L 1159 2956 
Q 1366 3272 1645 3428 
Q 1925 3584 2291 3584 
Q 2894 3584 3203 3211 
Q 3513 2838 3513 2113 
z
" transform="scale(0.015625)"/>
      <path id="DejaVuSans-20" transform="scale(0.015625)"/>
      <path id="DejaVuSans-Oblique-53" d="M 3859 4513 
L 3738 3897 
Q 3422 4066 3111 4152 
Q 2800 4238 2509 4238 
Q 1944 4238 1609 3991 
Q 1275 3744 1275 3334 
Q 1275 3109 1398 2989 
Q 1522 2869 2034 2731 
L 2413 2638 
Q 3053 2472 3303 2217 
Q 3553 1963 3553 1503 
Q 3553 797 2998 353 
Q 2444 -91 1538 -91 
Q 1166 -91 791 -17 
Q 416 56 38 206 
L 166 856 
Q 513 641 861 531 
Q 1209 422 1556 422 
Q 2147 422 2503 684 
Q 2859 947 2859 1369 
Q 2859 1650 2717 1795 
Q 2575 1941 2106 2059 
L 1728 2156 
Q 1081 2325 845 2545 
Q 609 2766 609 3163 
Q 609 3859 1145 4304 
Q 1681 4750 2541 4750 
Q 2875 4750 3203 4690 
Q 3531 4631 3859 4513 
z
" transform="scale(0.015625)"/>
     </defs>
     <use xlink:href="#DejaVuSans-68" transform="translate(0 0.015625)"/>
     <use xlink:href="#DejaVuSans-69" transform="translate(63.378906 0.015625)"/>
     <use xlink:href="#DejaVuSans-64" transform="translate(91.162109 0.015625)"/>
     <use xlink:href="#DejaVuSans-64" transform="translate(154.638672 0.015625)"/>
     <use xlink:href="#DejaVuSans-65" transform="translate(218.115234 0.015625)"/>
     <use xlink:href="#DejaVuSans-6e" transform="translate(279.638672 0.015625)"/>
     <use xlink:href="#DejaVuSans-20" transform="translate(343.017578 0.015625)"/>
     <use xlink:href="#DejaVuSans-Oblique-53" transform="translate(374.804688 0.015625)"/>
    </g>
   </g>
   <g id="text_5">
    <!-- (a) $S=0$ -->
    <g transform="translate(17.945978 21.795279) scale(0.11 -0.11)">
     <defs>
      <path id="DejaVuSans-Bold-28" d="M 2413 -844 
L 1484 -844 
Q 1006 -72 778 623 
Q 550 1319 550 2003 
Q 550 2688 779 3389 
Q 1009 4091 1484 4856 
L 2413 4856 
Q 2013 4116 1813 3408 
Q 1613 2700 1613 2009 
Q 1613 1319 1811 609 
Q 2009 -100 2413 -844 
z
" transform="scale(0.015625)"/>
      <path id="DejaVuSans-Bold-61" d="M 2106 1575 
Q 1756 1575 1579 1456 
Q 1403 1338 1403 1106 
Q 1403 894 1545 773 
Q 1688 653 1941 653 
Q 2256 653 2472 879 
Q 2688 1106 2688 1447 
L 2688 1575 
L 2106 1575 
z
M 3816 1997 
L 3816 0 
L 2688 0 
L 2688 519 
Q 2463 200 2181 54 
Q 1900 -91 1497 -91 
Q 953 -91 614 226 
Q 275 544 275 1050 
Q 275 1666 698 1953 
Q 1122 2241 2028 2241 
L 2688 2241 
L 2688 2328 
Q 2688 2594 2478 2717 
Q 2269 2841 1825 2841 
Q 1466 2841 1156 2769 
Q 847 2697 581 2553 
L 581 3406 
Q 941 3494 1303 3539 
Q 1666 3584 2028 3584 
Q 2975 3584 3395 3211 
Q 3816 2838 3816 1997 
z
" transform="scale(0.015625)"/>
      <path id="DejaVuSans-Bold-29" d="M 513 -844 
Q 913 -100 1113 609 
Q 1313 1319 1313 2009 
Q 1313 2700 1113 3408 
Q 913 4116 513 4856 
L 1441 4856 
Q 1916 4091 2145 3389 
Q 2375 2688 2375 2003 
Q 2375 1319 2147 623 
Q 1919 -72 1441 -844 
L 513 -844 
z
" transform="scale(0.015625)"/>
      <path id="DejaVuSans-Bold-20" transform="scale(0.015625)"/>
      <path id="DejaVuSans-3d" d="M 678 2906 
L 4684 2906 
L 4684 2381 
L 678 2381 
L 678 2906 
z
M 678 1631 
L 4684 1631 
L 4684 1100 
L 678 1100 
L 678 1631 
z
" transform="scale(0.015625)"/>
      <path id="DejaVuSans-30" d="M 2034 4250 
Q 1547 4250 1301 3770 
Q 1056 3291 1056 2328 
Q 1056 1369 1301 889 
Q 1547 409 2034 409 
Q 2525 409 2770 889 
Q 3016 1369 3016 2328 
Q 3016 3291 2770 3770 
Q 2525 4250 2034 4250 
z
M 2034 4750 
Q 2819 4750 3233 4129 
Q 3647 3509 3647 2328 
Q 3647 1150 3233 529 
Q 2819 -91 2034 -91 
Q 1250 -91 836 529 
Q 422 1150 422 2328 
Q 422 3509 836 4129 
Q 1250 4750 2034 4750 
z
" transform="scale(0.015625)"/>
     </defs>
     <use xlink:href="#DejaVuSans-Bold-28" transform="translate(0 0.125)"/>
     <use xlink:href="#DejaVuSans-Bold-61" transform="translate(45.703125 0.125)"/>
     <use xlink:href="#DejaVuSans-Bold-29" transform="translate(113.183594 0.125)"/>
     <use xlink:href="#DejaVuSans-Bold-20" transform="translate(158.886719 0.125)"/>
     <use xlink:href="#DejaVuSans-Oblique-53" transform="translate(193.701172 0.125)"/>
     <use xlink:href="#DejaVuSans-3d" transform="translate(276.660156 0.125)"/>
     <use xlink:href="#DejaVuSans-30" transform="translate(379.931641 0.125)"/>
    </g>
   </g>
   <g id="text_6">
    <!-- identical final vision  $\Rightarrow$  label = RIGHT -->
    <g transform="translate(33.97476 157.380972) scale(0.095 -0.095)">
     <defs>
      <path id="DejaVuSans-63" d="M 3122 3366 
L 3122 2828 
Q 2878 2963 2633 3030 
Q 2388 3097 2138 3097 
Q 1578 3097 1268 2742 
Q 959 2388 959 1747 
Q 959 1106 1268 751 
Q 1578 397 2138 397 
Q 2388 397 2633 464 
Q 2878 531 3122 666 
L 3122 134 
Q 2881 22 2623 -34 
Q 2366 -91 2075 -91 
Q 1284 -91 818 406 
Q 353 903 353 1747 
Q 353 2603 823 3093 
Q 1294 3584 2113 3584 
Q 2378 3584 2631 3529 
Q 2884 3475 3122 3366 
z
" transform="scale(0.015625)"/>
      <path id="DejaVuSans-6c" d="M 603 4863 
L 1178 4863 
L 1178 0 
L 603 0 
L 603 4863 
z
" transform="scale(0.015625)"/>
      <path id="DejaVuSans-66" d="M 2375 4863 
L 2375 4384 
L 1825 4384 
Q 1516 4384 1395 4259 
Q 1275 4134 1275 3809 
L 1275 3500 
L 2222 3500 
L 2222 3053 
L 1275 3053 
L 1275 0 
L 697 0 
L 697 3053 
L 147 3053 
L 147 3500 
L 697 3500 
L 697 3744 
Q 697 4328 969 4595 
Q 1241 4863 1831 4863 
L 2375 4863 
z
" transform="scale(0.015625)"/>
      <path id="DejaVuSans-76" d="M 191 3500 
L 800 3500 
L 1894 563 
L 2988 3500 
L 3597 3500 
L 2284 0 
L 1503 0 
L 191 3500 
z
" transform="scale(0.015625)"/>
      <path id="DejaVuSans-73" d="M 2834 3397 
L 2834 2853 
Q 2591 2978 2328 3040 
Q 2066 3103 1784 3103 
Q 1356 3103 1142 2972 
Q 928 2841 928 2578 
Q 928 2378 1081 2264 
Q 1234 2150 1697 2047 
L 1894 2003 
Q 2506 1872 2764 1633 
Q 3022 1394 3022 966 
Q 3022 478 2636 193 
Q 2250 -91 1575 -91 
Q 1294 -91 989 -36 
Q 684 19 347 128 
L 347 722 
Q 666 556 975 473 
Q 1284 391 1588 391 
Q 1994 391 2212 530 
Q 2431 669 2431 922 
Q 2431 1156 2273 1281 
Q 2116 1406 1581 1522 
L 1381 1569 
Q 847 1681 609 1914 
Q 372 2147 372 2553 
Q 372 3047 722 3315 
Q 1072 3584 1716 3584 
Q 2034 3584 2315 3537 
Q 2597 3491 2834 3397 
z
" transform="scale(0.015625)"/>
      <path id="DejaVuSans-6f" d="M 1959 3097 
Q 1497 3097 1228 2736 
Q 959 2375 959 1747 
Q 959 1119 1226 758 
Q 1494 397 1959 397 
Q 2419 397 2687 759 
Q 2956 1122 2956 1747 
Q 2956 2369 2687 2733 
Q 2419 3097 1959 3097 
z
M 1959 3584 
Q 2709 3584 3137 3096 
Q 3566 2609 3566 1747 
Q 3566 888 3137 398 
Q 2709 -91 1959 -91 
Q 1206 -91 779 398 
Q 353 888 353 1747 
Q 353 2609 779 3096 
Q 1206 3584 1959 3584 
z
" transform="scale(0.015625)"/>
      <path id="DejaVuSans-21d2" d="M 4113 1678 
L 4441 2006 
L 4113 2334 
L 366 2334 
L 366 2709 
L 3738 2709 
L 3447 3000 
L 3822 3375 
L 5050 2147 
L 5050 1866 
L 3822 638 
L 3447 1013 
L 3738 1303 
L 366 1303 
L 366 1678 
L 4113 1678 
z
" transform="scale(0.015625)"/>
      <path id="DejaVuSans-62" d="M 3116 1747 
Q 3116 2381 2855 2742 
Q 2594 3103 2138 3103 
Q 1681 3103 1420 2742 
Q 1159 2381 1159 1747 
Q 1159 1113 1420 752 
Q 1681 391 2138 391 
Q 2594 391 2855 752 
Q 3116 1113 3116 1747 
z
M 1159 2969 
Q 1341 3281 1617 3432 
Q 1894 3584 2278 3584 
Q 2916 3584 3314 3078 
Q 3713 2572 3713 1747 
Q 3713 922 3314 415 
Q 2916 -91 2278 -91 
Q 1894 -91 1617 61 
Q 1341 213 1159 525 
L 1159 0 
L 581 0 
L 581 4863 
L 1159 4863 
L 1159 2969 
z
" transform="scale(0.015625)"/>
      <path id="DejaVuSans-52" d="M 2841 2188 
Q 3044 2119 3236 1894 
Q 3428 1669 3622 1275 
L 4263 0 
L 3584 0 
L 2988 1197 
Q 2756 1666 2539 1819 
Q 2322 1972 1947 1972 
L 1259 1972 
L 1259 0 
L 628 0 
L 628 4666 
L 2053 4666 
Q 2853 4666 3247 4331 
Q 3641 3997 3641 3322 
Q 3641 2881 3436 2590 
Q 3231 2300 2841 2188 
z
M 1259 4147 
L 1259 2491 
L 2053 2491 
Q 2509 2491 2742 2702 
Q 2975 2913 2975 3322 
Q 2975 3731 2742 3939 
Q 2509 4147 2053 4147 
L 1259 4147 
z
" transform="scale(0.015625)"/>
      <path id="DejaVuSans-49" d="M 628 4666 
L 1259 4666 
L 1259 0 
L 628 0 
L 628 4666 
z
" transform="scale(0.015625)"/>
      <path id="DejaVuSans-47" d="M 3809 666 
L 3809 1919 
L 2778 1919 
L 2778 2438 
L 4434 2438 
L 4434 434 
Q 4069 175 3628 42 
Q 3188 -91 2688 -91 
Q 1594 -91 976 548 
Q 359 1188 359 2328 
Q 359 3472 976 4111 
Q 1594 4750 2688 4750 
Q 3144 4750 3555 4637 
Q 3966 4525 4313 4306 
L 4313 3634 
Q 3963 3931 3569 4081 
Q 3175 4231 2741 4231 
Q 1884 4231 1454 3753 
Q 1025 3275 1025 2328 
Q 1025 1384 1454 906 
Q 1884 428 2741 428 
Q 3075 428 3337 486 
Q 3600 544 3809 666 
z
" transform="scale(0.015625)"/>
      <path id="DejaVuSans-48" d="M 628 4666 
L 1259 4666 
L 1259 2753 
L 3553 2753 
L 3553 4666 
L 4184 4666 
L 4184 0 
L 3553 0 
L 3553 2222 
L 1259 2222 
L 1259 0 
L 628 0 
L 628 4666 
z
" transform="scale(0.015625)"/>
      <path id="DejaVuSans-54" d="M -19 4666 
L 3928 4666 
L 3928 4134 
L 2272 4134 
L 2272 0 
L 1638 0 
L 1638 4134 
L -19 4134 
L -19 4666 
z
" transform="scale(0.015625)"/>
     </defs>
     <use xlink:href="#DejaVuSans-69" transform="translate(0 0.015625)"/>
     <use xlink:href="#DejaVuSans-64" transform="translate(27.783203 0.015625)"/>
     <use xlink:href="#DejaVuSans-65" transform="translate(91.259766 0.015625)"/>
     <use xlink:href="#DejaVuSans-6e" transform="translate(152.783203 0.015625)"/>
     <use xlink:href="#DejaVuSans-74" transform="translate(216.162109 0.015625)"/>
     <use xlink:href="#DejaVuSans-69" transform="translate(255.371094 0.015625)"/>
     <use xlink:href="#DejaVuSans-63" transform="translate(283.154297 0.015625)"/>
     <use xlink:href="#DejaVuSans-61" transform="translate(338.134766 0.015625)"/>
     <use xlink:href="#DejaVuSans-6c" transform="translate(399.414062 0.015625)"/>
     <use xlink:href="#DejaVuSans-20" transform="translate(427.197266 0.015625)"/>
     <use xlink:href="#DejaVuSans-66" transform="translate(458.984375 0.015625)"/>
     <use xlink:href="#DejaVuSans-69" transform="translate(494.189453 0.015625)"/>
     <use xlink:href="#DejaVuSans-6e" transform="translate(521.972656 0.015625)"/>
     <use xlink:href="#DejaVuSans-61" transform="translate(585.351562 0.015625)"/>
     <use xlink:href="#DejaVuSans-6c" transform="translate(646.630859 0.015625)"/>
     <use xlink:href="#DejaVuSans-20" transform="translate(674.414062 0.015625)"/>
     <use xlink:href="#DejaVuSans-76" transform="translate(706.201172 0.015625)"/>
     <use xlink:href="#DejaVuSans-69" transform="translate(765.380859 0.015625)"/>
     <use xlink:href="#DejaVuSans-73" transform="translate(793.164062 0.015625)"/>
     <use xlink:href="#DejaVuSans-69" transform="translate(845.263672 0.015625)"/>
     <use xlink:href="#DejaVuSans-6f" transform="translate(873.046875 0.015625)"/>
     <use xlink:href="#DejaVuSans-6e" transform="translate(934.228516 0.015625)"/>
     <use xlink:href="#DejaVuSans-20" transform="translate(997.607422 0.015625)"/>
     <use xlink:href="#DejaVuSans-20" transform="translate(1029.394531 0.015625)"/>
     <use xlink:href="#DejaVuSans-21d2" transform="translate(1080.664062 0.015625)"/>
     <use xlink:href="#DejaVuSans-20" transform="translate(1183.935547 0.015625)"/>
     <use xlink:href="#DejaVuSans-20" transform="translate(1215.722656 0.015625)"/>
     <use xlink:href="#DejaVuSans-6c" transform="translate(1247.509766 0.015625)"/>
     <use xlink:href="#DejaVuSans-61" transform="translate(1275.292969 0.015625)"/>
     <use xlink:href="#DejaVuSans-62" transform="translate(1336.572266 0.015625)"/>
     <use xlink:href="#DejaVuSans-65" transform="translate(1400.048828 0.015625)"/>
     <use xlink:href="#DejaVuSans-6c" transform="translate(1461.572266 0.015625)"/>
     <use xlink:href="#DejaVuSans-20" transform="translate(1489.355469 0.015625)"/>
     <use xlink:href="#DejaVuSans-3d" transform="translate(1521.142578 0.015625)"/>
     <use xlink:href="#DejaVuSans-20" transform="translate(1604.931641 0.015625)"/>
     <use xlink:href="#DejaVuSans-52" transform="translate(1636.71875 0.015625)"/>
     <use xlink:href="#DejaVuSans-49" transform="translate(1706.201172 0.015625)"/>
     <use xlink:href="#DejaVuSans-47" transform="translate(1735.693359 0.015625)"/>
     <use xlink:href="#DejaVuSans-48" transform="translate(1813.183594 0.015625)"/>
     <use xlink:href="#DejaVuSans-54" transform="translate(1888.378906 0.015625)"/>
    </g>
   </g>
  </g>
  <g id="axes_2">
   <g id="patch_7">
    <path d="M 263.223577 139.119612 
L 479.575943 139.119612 
Q 483.396735 139.119612 483.396735 128.239644 
L 483.396735 39.159906 
Q 483.396735 28.279938 479.575943 28.279938 
L 263.223577 28.279938 
Q 259.402785 28.279938 259.402785 39.159906 
L 259.402785 128.239644 
Q 259.402785 139.119612 263.223577 139.119612 
z
" style="fill: #f7f7f7; stroke: #595959; stroke-linejoin: miter"/>
   </g>
   <g id="patch_8">
    <path d="M 311.69988 112.59969 
C 313.093148 112.59969 314.429539 111.023415 315.414729 108.21802 
C 316.399918 105.412626 316.953469 101.607161 316.953469 97.639734 
C 316.953469 93.672307 316.399918 89.866842 315.414729 87.061448 
C 314.429539 84.256053 313.093148 82.679778 311.69988 82.679778 
C 310.306612 82.679778 308.970221 84.256053 307.985031 87.061448 
C 306.999842 89.866842 306.446291 93.672307 306.446291 97.639734 
C 306.446291 101.607161 306.999842 105.412626 307.985031 108.21802 
C 308.970221 111.023415 310.306612 112.59969 311.69988 112.59969 
L 311.69988 112.59969 
z
" clip-path="url(#p16a4232519)" style="fill: none; stroke: #262626; stroke-width: 1.4; stroke-linejoin: miter"/>
   </g>
   <g id="patch_9">
    <path d="M 431.09964 112.59969 
C 432.492908 112.59969 433.829299 111.023415 434.814489 108.21802 
C 435.799678 105.412626 436.353229 101.607161 436.353229 97.639734 
C 436.353229 93.672307 435.799678 89.866842 434.814489 87.061448 
C 433.829299 84.256053 432.492908 82.679778 431.09964 82.679778 
C 429.706372 82.679778 428.369981 84.256053 427.384791 87.061448 
C 426.399602 89.866842 425.846051 93.672307 425.846051 97.639734 
C 425.846051 101.607161 426.399602 105.412626 427.384791 108.21802 
C 428.369981 111.023415 429.706372 112.59969 431.09964 112.59969 
L 431.09964 112.59969 
z
" clip-path="url(#p16a4232519)" style="fill: none; stroke: #262626; stroke-width: 1.4; stroke-linejoin: miter"/>
   </g>
   <g id="patch_10">
    <path d="M 431.09964 122.119662 
C 433.379533 122.119662 435.566355 119.540302 437.178483 114.949657 
C 438.790611 110.359012 439.696423 104.131887 439.696423 97.639734 
C 439.696423 91.147581 438.790611 84.920456 437.178483 80.329811 
C 435.566355 75.739166 433.379533 73.159806 431.09964 73.159806 
C 428.819747 73.159806 426.632925 75.739166 425.020797 80.329811 
C 423.408669 84.920456 422.502857 91.147581 422.502857 97.639734 
C 422.502857 104.131887 423.408669 110.359012 425.020797 114.949657 
C 426.632925 119.540302 428.819747 122.119662 431.09964 122.119662 
L 431.09964 122.119662 
z
" clip-path="url(#p16a4232519)" style="fill: none; stroke: #262626; stroke-width: 1.8; stroke-linejoin: miter"/>
   </g>
   <g id="patch_11">
    <path d="M 420.024292 97.639734 
Q 401.251006 97.639734 384.378378 97.639734 
" clip-path="url(#p16a4232519)" style="fill: none; stroke: #262626; stroke-width: 1.7; stroke-linecap: round"/>
    <path d="M 390.378378 100.639734 
L 384.378378 97.639734 
L 390.378378 94.639734 
z
" clip-path="url(#p16a4232519)" style="fill: #262626; stroke: #262626; stroke-width: 1.7; stroke-linecap: round"/>
   </g>
   <g id="line2d_3">
    <path d="M 371.39976 97.639734 
" clip-path="url(#p16a4232519)" style="fill: none; stroke: #262626; stroke-width: 1.5; stroke-linecap: square"/>
    <g clip-path="url(#p16a4232519)">
     <use xlink:href="#m950b4a3790" x="371.39976" y="97.639734" style="fill: #ffffff; stroke: #262626; stroke-width: 1.4; stroke-linejoin: bevel"/>
    </g>
   </g>
   <g id="line2d_4">
    <path d="M 431.09964 45.959886 
L 431.09964 70.439814 
" clip-path="url(#p16a4232519)" style="fill: none; stroke-dasharray: 3.33,1.44; stroke-dashoffset: 0; stroke: #595959; stroke-width: 0.9"/>
   </g>
   <g id="text_7">
    <!-- A -->
    <g transform="translate(308.279567 131.078096) scale(0.1 -0.1)">
     <use xlink:href="#DejaVuSans-41"/>
    </g>
   </g>
   <g id="text_8">
    <!-- B -->
    <g transform="translate(427.669171 131.078096) scale(0.1 -0.1)">
     <use xlink:href="#DejaVuSans-42"/>
    </g>
   </g>
   <g id="text_9">
    <!-- target -->
    <g transform="translate(356.956791 64.384123) scale(0.095 -0.095)">
     <use xlink:href="#DejaVuSans-74"/>
     <use xlink:href="#DejaVuSans-61" transform="translate(39.208984 0)"/>
     <use xlink:href="#DejaVuSans-72" transform="translate(100.488281 0)"/>
     <use xlink:href="#DejaVuSans-67" transform="translate(139.851562 0)"/>
     <use xlink:href="#DejaVuSans-65" transform="translate(203.328125 0)"/>
     <use xlink:href="#DejaVuSans-74" transform="translate(264.851562 0)"/>
    </g>
   </g>
   <g id="text_10">
    <!-- hidden $S$ -->
    <g style="fill: #404040" transform="translate(410.24714 41.264191) scale(0.095 -0.095)">
     <use xlink:href="#DejaVuSans-68" transform="translate(0 0.015625)"/>
     <use xlink:href="#DejaVuSans-69" transform="translate(63.378906 0.015625)"/>
     <use xlink:href="#DejaVuSans-64" transform="translate(91.162109 0.015625)"/>
     <use xlink:href="#DejaVuSans-64" transform="translate(154.638672 0.015625)"/>
     <use xlink:href="#DejaVuSans-65" transform="translate(218.115234 0.015625)"/>
     <use xlink:href="#DejaVuSans-6e" transform="translate(279.638672 0.015625)"/>
     <use xlink:href="#DejaVuSans-20" transform="translate(343.017578 0.015625)"/>
     <use xlink:href="#DejaVuSans-Oblique-53" transform="translate(374.804688 0.015625)"/>
    </g>
   </g>
   <g id="text_11">
    <!-- (b) $S=1$ -->
    <g transform="translate(262.745978 21.795279) scale(0.11 -0.11)">
     <defs>
      <path id="DejaVuSans-Bold-62" d="M 2400 722 
Q 2759 722 2948 984 
Q 3138 1247 3138 1747 
Q 3138 2247 2948 2509 
Q 2759 2772 2400 2772 
Q 2041 2772 1848 2508 
Q 1656 2244 1656 1747 
Q 1656 1250 1848 986 
Q 2041 722 2400 722 
z
M 1656 2988 
Q 1888 3294 2169 3439 
Q 2450 3584 2816 3584 
Q 3463 3584 3878 3070 
Q 4294 2556 4294 1747 
Q 4294 938 3878 423 
Q 3463 -91 2816 -91 
Q 2450 -91 2169 54 
Q 1888 200 1656 506 
L 1656 0 
L 538 0 
L 538 4863 
L 1656 4863 
L 1656 2988 
z
" transform="scale(0.015625)"/>
      <path id="DejaVuSans-31" d="M 794 531 
L 1825 531 
L 1825 4091 
L 703 3866 
L 703 4441 
L 1819 4666 
L 2450 4666 
L 2450 531 
L 3481 531 
L 3481 0 
L 794 0 
L 794 531 
z
" transform="scale(0.015625)"/>
     </defs>
     <use xlink:href="#DejaVuSans-Bold-28" transform="translate(0 0.015625)"/>
     <use xlink:href="#DejaVuSans-Bold-62" transform="translate(45.703125 0.015625)"/>
     <use xlink:href="#DejaVuSans-Bold-29" transform="translate(117.285156 0.015625)"/>
     <use xlink:href="#DejaVuSans-Bold-20" transform="translate(162.988281 0.015625)"/>
     <use xlink:href="#DejaVuSans-Oblique-53" transform="translate(197.802734 0.015625)"/>
     <use xlink:href="#DejaVuSans-3d" transform="translate(280.761719 0.015625)"/>
     <use xlink:href="#DejaVuSans-31" transform="translate(384.033203 0.015625)"/>
    </g>
   </g>
   <g id="text_12">
    <!-- identical final vision  $\Rightarrow$  label = LEFT -->
    <g transform="translate(282.33726 157.380972) scale(0.095 -0.095)">
     <defs>
      <path id="DejaVuSans-4c" d="M 628 4666 
L 1259 4666 
L 1259 531 
L 3531 531 
L 3531 0 
L 628 0 
L 628 4666 
z
" transform="scale(0.015625)"/>
      <path id="DejaVuSans-45" d="M 628 4666 
L 3578 4666 
L 3578 4134 
L 1259 4134 
L 1259 2753 
L 3481 2753 
L 3481 2222 
L 1259 2222 
L 1259 531 
L 3634 531 
L 3634 0 
L 628 0 
L 628 4666 
z
" transform="scale(0.015625)"/>
      <path id="DejaVuSans-46" d="M 628 4666 
L 3309 4666 
L 3309 4134 
L 1259 4134 
L 1259 2759 
L 3109 2759 
L 3109 2228 
L 1259 2228 
L 1259 0 
L 628 0 
L 628 4666 
z
" transform="scale(0.015625)"/>
     </defs>
     <use xlink:href="#DejaVuSans-69" transform="translate(0 0.015625)"/>
     <use xlink:href="#DejaVuSans-64" transform="translate(27.783203 0.015625)"/>
     <use xlink:href="#DejaVuSans-65" transform="translate(91.259766 0.015625)"/>
     <use xlink:href="#DejaVuSans-6e" transform="translate(152.783203 0.015625)"/>
     <use xlink:href="#DejaVuSans-74" transform="translate(216.162109 0.015625)"/>
     <use xlink:href="#DejaVuSans-69" transform="translate(255.371094 0.015625)"/>
     <use xlink:href="#DejaVuSans-63" transform="translate(283.154297 0.015625)"/>
     <use xlink:href="#DejaVuSans-61" transform="translate(338.134766 0.015625)"/>
     <use xlink:href="#DejaVuSans-6c" transform="translate(399.414062 0.015625)"/>
     <use xlink:href="#DejaVuSans-20" transform="translate(427.197266 0.015625)"/>
     <use xlink:href="#DejaVuSans-66" transform="translate(458.984375 0.015625)"/>
     <use xlink:href="#DejaVuSans-69" transform="translate(494.189453 0.015625)"/>
     <use xlink:href="#DejaVuSans-6e" transform="translate(521.972656 0.015625)"/>
     <use xlink:href="#DejaVuSans-61" transform="translate(585.351562 0.015625)"/>
     <use xlink:href="#DejaVuSans-6c" transform="translate(646.630859 0.015625)"/>
     <use xlink:href="#DejaVuSans-20" transform="translate(674.414062 0.015625)"/>
     <use xlink:href="#DejaVuSans-76" transform="translate(706.201172 0.015625)"/>
     <use xlink:href="#DejaVuSans-69" transform="translate(765.380859 0.015625)"/>
     <use xlink:href="#DejaVuSans-73" transform="translate(793.164062 0.015625)"/>
     <use xlink:href="#DejaVuSans-69" transform="translate(845.263672 0.015625)"/>
     <use xlink:href="#DejaVuSans-6f" transform="translate(873.046875 0.015625)"/>
     <use xlink:href="#DejaVuSans-6e" transform="translate(934.228516 0.015625)"/>
     <use xlink:href="#DejaVuSans-20" transform="translate(997.607422 0.015625)"/>
     <use xlink:href="#DejaVuSans-20" transform="translate(1029.394531 0.015625)"/>
     <use xlink:href="#DejaVuSans-21d2" transform="translate(1080.664062 0.015625)"/>
     <use xlink:href="#DejaVuSans-20" transform="translate(1183.935547 0.015625)"/>
     <use xlink:href="#DejaVuSans-20" transform="translate(1215.722656 0.015625)"/>
     <use xlink:href="#DejaVuSans-6c" transform="translate(1247.509766 0.015625)"/>
     <use xlink:href="#DejaVuSans-61" transform="translate(1275.292969 0.015625)"/>
     <use xlink:href="#DejaVuSans-62" transform="translate(1336.572266 0.015625)"/>
     <use xlink:href="#DejaVuSans-65" transform="translate(1400.048828 0.015625)"/>
     <use xlink:href="#DejaVuSans-6c" transform="translate(1461.572266 0.015625)"/>
     <use xlink:href="#DejaVuSans-20" transform="translate(1489.355469 0.015625)"/>
     <use xlink:href="#DejaVuSans-3d" transform="translate(1521.142578 0.015625)"/>
     <use xlink:href="#DejaVuSans-20" transform="translate(1604.931641 0.015625)"/>
     <use xlink:href="#DejaVuSans-4c" transform="translate(1636.71875 0.015625)"/>
     <use xlink:href="#DejaVuSans-45" transform="translate(1692.431641 0.015625)"/>
     <use xlink:href="#DejaVuSans-46" transform="translate(1755.615234 0.015625)"/>
     <use xlink:href="#DejaVuSans-54" transform="translate(1813.134766 0.015625)"/>
    </g>
   </g>
  </g>
 </g>
 <defs>
  <clipPath id="p0989dbd8fc">
   <rect x="7.2" y="7.2" width="238.79952" height="163.19952"/>
  </clipPath>
  <clipPath id="p16a4232519">
   <rect x="252" y="7.2" width="238.79952" height="163.19952"/>
  </clipPath>
 </defs>
</svg>
