<?xml version="1.0" encoding="UTF-8" standalone="no"?>
<!DOCTYPE svg PUBLIC "-//W3C//DTD SVG 1.1//EN"
 "http://www.w3.org/Graphics/SVG/1.1/DTD/svg11.dtd">
<!-- Generated by graphviz version 13.1.2 (20250808.2320)
 -->
<!-- Title: paper_references Pages: 1 -->
<svg width="585pt" height="498pt"
 viewBox="0.00 0.00 585.00 498.00" xmlns="http://www.w3.org/2000/svg" xmlns:xlink="http://www.w3.org/1999/xlink">
<g id="graph0" class="graph" transform="scale(1 1) rotate(0) translate(28.8 469.2)">
<title>paper_references</title>
<!-- FEL -->
<g id="node1" class="node">
<title>FEL</title>
<path fill="#b8d4a8" stroke="#5a8a42" stroke-width="1.5" d="M247.25,-440.4C247.25,-440.4 152.75,-440.4 152.75,-440.4 146.75,-440.4 140.75,-434.4 140.75,-428.4 140.75,-428.4 140.75,-397.05 140.75,-397.05 140.75,-391.05 146.75,-385.05 152.75,-385.05 152.75,-385.05 247.25,-385.05 247.25,-385.05 253.25,-385.05 259.25,-391.05 259.25,-397.05 259.25,-397.05 259.25,-428.4 259.25,-428.4 259.25,-434.4 253.25,-440.4 247.25,-440.4"/>
<text xml:space="preserve" text-anchor="middle" x="200" y="-420.1" font-family="Helvetica,sans-Serif" font-size="10.00">Stratification of</text>
<text xml:space="preserve" text-anchor="middle" x="200" y="-408.85" font-family="Helvetica,sans-Serif" font-size="10.00">Free&#45;Energy Loops</text>
<text xml:space="preserve" text-anchor="middle" x="200" y="-397.6" font-family="Helvetica,sans-Serif" font-size="10.00">(Jul 2025)</text>
</g>
<!-- CSR -->
<g id="node2" class="node">
<title>CSR</title>
<path fill="#f5e6b8" stroke="#b89a3e" stroke-width="1.5" d="M487.25,-186.7C487.25,-186.7 368.75,-186.7 368.75,-186.7 362.75,-186.7 356.75,-180.7 356.75,-174.7 356.75,-174.7 356.75,-143.35 356.75,-143.35 356.75,-137.35 362.75,-131.35 368.75,-131.35 368.75,-131.35 487.25,-131.35 487.25,-131.35 493.25,-131.35 499.25,-137.35 499.25,-143.35 499.25,-143.35 499.25,-174.7 499.25,-174.7 499.25,-180.7 493.25,-186.7 487.25,-186.7"/>
<text xml:space="preserve" text-anchor="middle" x="428" y="-166.4" font-family="Helvetica,sans-Serif" font-size="10.00">Consciousness as</text>
<text xml:space="preserve" text-anchor="middle" x="428" y="-155.15" font-family="Helvetica,sans-Serif" font-size="10.00">Self&#45;Referential Process</text>
<text xml:space="preserve" text-anchor="middle" x="428" y="-143.9" font-family="Helvetica,sans-Serif" font-size="10.00">(Sep 2025)</text>
</g>
<!-- SRL -->
<g id="node3" class="node">
<title>SRL</title>
<path fill="#dce9f5" stroke="#4a7fb5" stroke-width="1.5" d="M102,-309.05C102,-309.05 12,-309.05 12,-309.05 6,-309.05 0,-303.05 0,-297.05 0,-297.05 0,-265.7 0,-265.7 0,-259.7 6,-253.7 12,-253.7 12,-253.7 102,-253.7 102,-253.7 108,-253.7 114,-259.7 114,-265.7 114,-265.7 114,-297.05 114,-297.05 114,-303.05 108,-309.05 102,-309.05"/>
<text xml:space="preserve" text-anchor="middle" x="57" y="-288.75" font-family="Helvetica,sans-Serif" font-size="10.00">Status Regulation</text>
<text xml:space="preserve" text-anchor="middle" x="57" y="-277.5" font-family="Helvetica,sans-Serif" font-size="10.00">Loops</text>
<text xml:space="preserve" text-anchor="middle" x="57" y="-266.25" font-family="Helvetica,sans-Serif" font-size="10.00">(Aug 2025)</text>
</g>
<!-- SRL&#45;&gt;FEL -->
<g id="edge5" class="edge">
<title>SRL&#45;&gt;FEL</title>
<path fill="none" stroke="#555555" stroke-dasharray="5,2" d="M82.51,-309.77C96.13,-323.99 113.42,-341.41 129.75,-356.05 137.75,-363.22 146.54,-370.57 155.12,-377.49"/>
<polygon fill="#555555" stroke="#555555" points="152.75,-380.07 162.75,-383.56 157.11,-374.6 152.75,-380.07"/>
<text xml:space="preserve" text-anchor="middle" x="148.88" y="-348.45" font-family="Helvetica,sans-Serif" font-size="8.00">applies</text>
<text xml:space="preserve" text-anchor="middle" x="148.88" y="-339.45" font-family="Helvetica,sans-Serif" font-size="8.00">framework</text>
</g>
<!-- LHV -->
<g id="node4" class="node">
<title>LHV</title>
<path fill="#dce9f5" stroke="#4a7fb5" stroke-width="1.5" d="M356.75,-309.05C356.75,-309.05 271.25,-309.05 271.25,-309.05 265.25,-309.05 259.25,-303.05 259.25,-297.05 259.25,-297.05 259.25,-265.7 259.25,-265.7 259.25,-259.7 265.25,-253.7 271.25,-253.7 271.25,-253.7 356.75,-253.7 356.75,-253.7 362.75,-253.7 368.75,-259.7 368.75,-265.7 368.75,-265.7 368.75,-297.05 368.75,-297.05 368.75,-303.05 362.75,-309.05 356.75,-309.05"/>
<text xml:space="preserve" text-anchor="middle" x="314" y="-288.75" font-family="Helvetica,sans-Serif" font-size="10.00">Loop–Hub–Value</text>
<text xml:space="preserve" text-anchor="middle" x="314" y="-277.5" font-family="Helvetica,sans-Serif" font-size="10.00">Model (LHV)</text>
<text xml:space="preserve" text-anchor="middle" x="314" y="-266.25" font-family="Helvetica,sans-Serif" font-size="10.00">(Jul 2025)</text>
</g>
<!-- LHV&#45;&gt;FEL -->
<g id="edge1" class="edge">
<title>LHV&#45;&gt;FEL</title>
<path fill="none" stroke="#2a6099" stroke-width="2" d="M290.1,-309.49C273.31,-328.55 250.64,-354.27 232.25,-375.14"/>
<polygon fill="#2a6099" stroke="#2a6099" stroke-width="2" points="229.85,-372.56 225.87,-382.37 235.11,-377.19 229.85,-372.56"/>
<text xml:space="preserve" text-anchor="middle" x="271.7" y="-343.95" font-family="Helvetica,sans-Serif" font-size="8.00">cites</text>
</g>
<!-- CAB -->
<g id="node5" class="node">
<title>CAB</title>
<path fill="#dce9f5" stroke="#4a7fb5" stroke-width="1.5" d="M511.75,-55.35C511.75,-55.35 420.25,-55.35 420.25,-55.35 414.25,-55.35 408.25,-49.35 408.25,-43.35 408.25,-43.35 408.25,-12 408.25,-12 408.25,-6 414.25,0 420.25,0 420.25,0 511.75,0 511.75,0 517.75,0 523.75,-6 523.75,-12 523.75,-12 523.75,-43.35 523.75,-43.35 523.75,-49.35 517.75,-55.35 511.75,-55.35"/>
<text xml:space="preserve" text-anchor="middle" x="466" y="-35.05" font-family="Helvetica,sans-Serif" font-size="10.00">Consciousness &amp;</text>
<text xml:space="preserve" text-anchor="middle" x="466" y="-23.8" font-family="Helvetica,sans-Serif" font-size="10.00">Agency Backbone</text>
<text xml:space="preserve" text-anchor="middle" x="466" y="-12.55" font-family="Helvetica,sans-Serif" font-size="10.00">(Aug 2025)</text>
</g>
<!-- CAB&#45;&gt;CSR -->
<g id="edge8" class="edge">
<title>CAB&#45;&gt;CSR</title>
<path fill="none" stroke="#555555" stroke-dasharray="5,2" d="M458.03,-55.79C452.56,-74.42 445.22,-99.41 439.17,-120.01"/>
<polygon fill="#555555" stroke="#555555" points="435.84,-118.91 436.38,-129.49 442.56,-120.88 435.84,-118.91"/>
<text xml:space="preserve" text-anchor="middle" x="488.28" y="-94.75" font-family="Helvetica,sans-Serif" font-size="8.00">shared consciousness</text>
<text xml:space="preserve" text-anchor="middle" x="488.28" y="-85.75" font-family="Helvetica,sans-Serif" font-size="8.00">framework</text>
</g>
<!-- LHCV -->
<g id="node6" class="node">
<title>LHCV</title>
<path fill="#dce9f5" stroke="#4a7fb5" stroke-width="1.5" d="M284.12,-186.7C284.12,-186.7 185.88,-186.7 185.88,-186.7 179.88,-186.7 173.88,-180.7 173.88,-174.7 173.88,-174.7 173.88,-143.35 173.88,-143.35 173.88,-137.35 179.88,-131.35 185.88,-131.35 185.88,-131.35 284.12,-131.35 284.12,-131.35 290.12,-131.35 296.12,-137.35 296.12,-143.35 296.12,-143.35 296.12,-174.7 296.12,-174.7 296.12,-180.7 290.12,-186.7 284.12,-186.7"/>
<text xml:space="preserve" text-anchor="middle" x="235" y="-166.4" font-family="Helvetica,sans-Serif" font-size="10.00">Loop–Hub–Control–</text>
<text xml:space="preserve" text-anchor="middle" x="235" y="-155.15" font-family="Helvetica,sans-Serif" font-size="10.00">Value (LHCV)</text>
<text xml:space="preserve" text-anchor="middle" x="235" y="-143.9" font-family="Helvetica,sans-Serif" font-size="10.00">(May 2026)</text>
</g>
<!-- LHCV&#45;&gt;FEL -->
<g id="edge2" class="edge">
<title>LHCV&#45;&gt;FEL</title>
<path fill="none" stroke="#2a6099" stroke-width="2" d="M231.19,-187.44C225.01,-231.89 212.77,-319.88 205.6,-371.45"/>
<polygon fill="#2a6099" stroke="#2a6099" stroke-width="2" points="202.14,-370.96 204.22,-381.35 209.07,-371.92 202.14,-370.96"/>
<text xml:space="preserve" text-anchor="middle" x="229.43" y="-278.28" font-family="Helvetica,sans-Serif" font-size="8.00">cites</text>
</g>
<!-- LHCV&#45;&gt;LHV -->
<g id="edge4" class="edge">
<title>LHCV&#45;&gt;LHV</title>
<path fill="none" stroke="#555555" stroke-dasharray="5,2" d="M252.93,-187.33C263.89,-204.03 278.04,-225.59 289.96,-243.76"/>
<polygon fill="#555555" stroke="#555555" points="286.9,-245.47 295.31,-251.91 292.75,-241.63 286.9,-245.47"/>
<text xml:space="preserve" text-anchor="middle" x="290.74" y="-217.1" font-family="Helvetica,sans-Serif" font-size="8.00">extends</text>
</g>
<!-- VBD -->
<g id="node7" class="node">
<title>VBD</title>
<path fill="#dce9f5" stroke="#4a7fb5" stroke-width="1.5" d="M213.5,-55.35C213.5,-55.35 144.5,-55.35 144.5,-55.35 138.5,-55.35 132.5,-49.35 132.5,-43.35 132.5,-43.35 132.5,-12 132.5,-12 132.5,-6 138.5,0 144.5,0 144.5,0 213.5,0 213.5,0 219.5,0 225.5,-6 225.5,-12 225.5,-12 225.5,-43.35 225.5,-43.35 225.5,-49.35 219.5,-55.35 213.5,-55.35"/>
<text xml:space="preserve" text-anchor="middle" x="179" y="-35.05" font-family="Helvetica,sans-Serif" font-size="10.00">Value Bundle</text>
<text xml:space="preserve" text-anchor="middle" x="179" y="-23.8" font-family="Helvetica,sans-Serif" font-size="10.00">Drift</text>
<text xml:space="preserve" text-anchor="middle" x="179" y="-12.55" font-family="Helvetica,sans-Serif" font-size="10.00">(May 2026)</text>
</g>
<!-- VBD&#45;&gt;LHCV -->
<g id="edge6" class="edge">
<title>VBD&#45;&gt;LHCV</title>
<path fill="none" stroke="#555555" stroke-dasharray="5,2" d="M177.88,-55.92C178.23,-70.27 180.21,-87.84 186.5,-102.35 189.48,-109.22 193.63,-115.86 198.25,-122.01"/>
<polygon fill="#555555" stroke="#555555" points="195.31,-123.94 204.34,-129.48 200.73,-119.51 195.31,-123.94"/>
<text xml:space="preserve" text-anchor="middle" x="205.25" y="-94.75" font-family="Helvetica,sans-Serif" font-size="8.00">uses value</text>
<text xml:space="preserve" text-anchor="middle" x="205.25" y="-85.75" font-family="Helvetica,sans-Serif" font-size="8.00">concepts</text>
</g>
<!-- UoC -->
<g id="node8" class="node">
<title>UoC</title>
<path fill="#dce9f5" stroke="#4a7fb5" stroke-width="1.5" d="M353.38,-49.73C353.38,-49.73 280.62,-49.73 280.62,-49.73 274.62,-49.73 268.62,-43.73 268.62,-37.73 268.62,-37.73 268.62,-17.63 268.62,-17.63 268.62,-11.63 274.62,-5.63 280.62,-5.63 280.62,-5.63 353.38,-5.63 353.38,-5.63 359.38,-5.63 365.38,-11.63 365.38,-17.63 365.38,-17.63 365.38,-37.73 365.38,-37.73 365.38,-43.73 359.38,-49.73 353.38,-49.73"/>
<text xml:space="preserve" text-anchor="middle" x="317" y="-29.43" font-family="Helvetica,sans-Serif" font-size="10.00">Unit of Caring</text>
<text xml:space="preserve" text-anchor="middle" x="317" y="-18.18" font-family="Helvetica,sans-Serif" font-size="10.00">(May 2026)</text>
</g>
<!-- UoC&#45;&gt;CSR -->
<g id="edge3" class="edge">
<title>UoC&#45;&gt;CSR</title>
<path fill="none" stroke="#2a6099" stroke-width="2" d="M335.58,-50.33C352.14,-69.62 376.72,-98.27 396.37,-121.17"/>
<polygon fill="#2a6099" stroke="#2a6099" stroke-width="2" points="393.59,-123.3 402.76,-128.61 398.9,-118.74 393.59,-123.3"/>
<text xml:space="preserve" text-anchor="middle" x="387.02" y="-90.25" font-family="Helvetica,sans-Serif" font-size="8.00">cites</text>
</g>
<!-- UoC&#45;&gt;LHCV -->
<g id="edge7" class="edge">
<title>UoC&#45;&gt;LHCV</title>
<path fill="none" stroke="#555555" stroke-dasharray="5,2" d="M303.28,-50.33C290.99,-69.71 272.72,-98.53 258.17,-121.47"/>
<polygon fill="#555555" stroke="#555555" points="255.4,-119.31 253,-129.63 261.31,-123.06 255.4,-119.31"/>
<text xml:space="preserve" text-anchor="middle" x="302.28" y="-94.75" font-family="Helvetica,sans-Serif" font-size="8.00">uses control</text>
<text xml:space="preserve" text-anchor="middle" x="302.28" y="-85.75" font-family="Helvetica,sans-Serif" font-size="8.00">framework</text>
</g>
</g>
</svg>
